<svg width="28" height="24" viewBox="0 0 28 24" fill="none" xmlns="http://www.w3.org/2000/svg">
<ellipse cx="13.85" cy="12" rx="13.645" ry="12" fill="#1F84A3"/>
<g clip-path="url(#clip0_74_1257)">
<path d="M13.3952 20.6894C12.5993 20.6894 11.936 20.4667 11.4053 20.0213C10.8747 19.5759 10.6094 19.0371 10.6094 18.405C10.6094 18.0458 10.6923 17.7224 10.8581 17.4351C11.0239 17.1478 11.3141 16.8316 11.7287 16.4869C12.1598 16.142 12.4998 15.8187 12.7485 15.517C13.0138 15.201 13.1465 14.9279 13.1465 14.698V13.9222C12.7817 13.8503 12.4583 13.7067 12.1764 13.4912C11.9111 13.2613 11.737 12.9882 11.6541 12.6722H10.7586C10.4767 12.6722 10.1451 12.7871 9.76368 13.017C9.38228 13.2469 9.01747 13.5271 8.66923 13.8575C8.32101 14.188 7.97278 14.4322 7.62454 14.5903C7.29289 14.7483 6.9115 14.8274 6.48036 14.8274C5.73415 14.8274 5.10401 14.5975 4.58996 14.1377C4.09249 13.6779 3.84375 13.1032 3.84375 12.4136C3.84375 11.7239 4.09249 11.1492 4.58996 10.6894C5.10401 10.2296 5.73415 9.99976 6.48036 9.99976C7.17682 9.99976 7.77378 10.2153 8.27126 10.6463C8.76873 11.0774 9.21646 11.4437 9.61444 11.7455C10.0124 12.0472 10.3938 12.198 10.7586 12.198H11.6541C11.737 11.8676 11.9111 11.5946 12.1764 11.3791C12.4583 11.1492 12.7817 11.0055 13.1465 10.948V10.1722C13.1465 9.79862 12.8148 9.32448 12.1516 8.74977L11.6292 8.29718C10.9493 7.7081 10.6094 7.0831 10.6094 6.42218C10.6094 5.77563 10.8747 5.23683 11.4053 4.8058C11.9526 4.3604 12.6159 4.1377 13.3952 4.1377C14.1912 4.1377 14.8545 4.3604 15.3851 4.8058C15.9158 5.2512 16.1811 5.79 16.1811 6.42218C16.1811 7.15493 15.7665 7.84459 14.9374 8.49115C14.1082 9.15206 13.6937 9.71241 13.6937 10.1722V10.948C14.0751 11.0055 14.3902 11.1492 14.6389 11.3791C14.9043 11.5946 15.0701 11.8676 15.1364 12.198H16.0318C16.5956 12.198 17.2424 11.8317 17.972 11.0989C18.7182 10.3661 19.4976 9.99976 20.3101 9.99976C21.0563 9.99976 21.6782 10.2368 22.1756 10.711C22.6897 11.1707 22.9467 11.7383 22.9467 12.4136C22.9467 13.1032 22.6897 13.6779 22.1756 14.1377C21.6616 14.5975 21.0398 14.8274 20.3101 14.8274C19.6136 14.8274 19.025 14.619 18.5441 14.2024C18.0632 13.7857 17.6155 13.4265 17.2009 13.1248C16.7863 12.823 16.3967 12.6722 16.0318 12.6722H15.1364C15.0037 13.3618 14.5229 13.7785 13.6937 13.9222V14.698C13.6937 15.129 14.1082 15.6823 14.9374 16.3575C15.7665 17.0328 16.1811 17.7152 16.1811 18.405C16.1811 19.0515 15.9075 19.5903 15.3603 20.0213C14.8296 20.4667 14.1746 20.6894 13.3952 20.6894Z" fill="white"/>
</g>
<defs>
<clipPath id="clip0_74_1257">
<rect width="19.103" height="16.5517" fill="white" transform="translate(3.84375 4.1377)"/>
</clipPath>
</defs>
</svg>
